<svg xmlns="http://www.w3.org/2000/svg" viewBox="0 0 559 784"><g fill="none" fill-rule="evenodd" stroke="none" stroke-width="1"><g transform="translate(-121.000000, -8.000000)"><g transform="translate(121.000000, 8.000000)"><polygon fill="#FFFFFF" id="Path-9" points="148.303513 723.980042 110.928522 299.529274 457.703758 310.63912 457.703758 605.958529 429.782072 714.192147"></polygon><path d="M441.921241,135.231002 L510.078847,162.517131 L514.568638,316.024659 L542.470372,327.958942 L549.24681,364.891758 L542.470372,413.781299 L532.963882,468.896378 L514.568638,482.618224 L498.179511,488.237176 L435.099687,689.343838 L364.579459,577.486261 L208.401484,577.486261 L159.579492,689.343838 L90.8403563,599.846876 L63.1460425,482.618224 L45.4948862,477.274447 L36.4255955,442.165469 L17.874721,364.891758 L29.8947589,323.834217 L54.6185357,310.63912 L63.1460425,225.073507 L106.766683,135.231002 L441.921241,135.231002 Z M412.14634,379.944313 L362.603318,379.944313 L344.158789,383.002958 L335.831057,398.120717 L335.831057,398.877877 L338.404373,402.892259 L369.515785,411.164753 L396.882653,410.332291 L417.729437,401.908395 L429.782072,389.032515 L412.14634,379.944313 Z M209.122514,379.944313 L159.579492,379.944313 L141.94376,389.032515 L153.996395,401.908395 L174.843179,410.332291 L202.210047,411.164753 L233.321459,402.892259 L235.894775,398.877877 L235.894775,398.120717 L227.567043,383.002958 L209.122514,379.944313 Z" fill="#F7C8B0"></path><path d="M42.4425005,432.279174 C40.3490536,418.15963 36.3804338,404.574995 32.1836183,390.970174 C30.1397791,384.34943 22.698617,316.486807 53.2371464,332.675333 C54.675771,333.442371 56.1838466,334.340612 57.7316083,335.117742 C57.8407453,340.365892 57.9598039,345.624135 58.0987056,350.892471 C59.1503899,392.504249 60.6088576,434.136211 61.0950136,475.788359 C48.4251949,486.163549 43.444577,439.051306 42.4425005,432.279174 Z M514.266425,348.663881 C514.405327,343.395546 514.524385,338.137302 514.633522,332.889152 C516.181284,332.112022 517.68936,331.213781 519.127984,330.446744 C549.666514,314.258218 542.225351,382.12084 540.181512,388.741584 C535.984697,402.346405 532.016077,415.931041 529.92263,430.050584 C528.920554,436.822717 523.939936,483.93496 511.270117,473.55977 C511.756273,431.907622 513.214741,390.275659 514.266425,348.663881 Z M461.488448,699.777141 C483.656857,676.596072 499.000132,585.529214 500.943245,576.578573 C508.272041,542.819647 510.631215,527.613301 510.677125,492.750381 C510.677125,491.647975 510.735207,490.535547 510.735207,489.433141 C521.945088,491.61791 532.41926,482.41783 539.602103,471.012937 C546.784945,459.598023 542.990236,437.219179 545.545856,424.581596 C548.391888,410.540951 553.203038,397.071552 555.845782,382.99082 C560.12451,360.201079 559.776016,333.061844 542.399733,316.676081 C533.135608,307.937007 523.145455,312.336609 514.568638,316.024659 C515.468913,236.250544 532.198271,208.050956 485.025775,139.922258 C438.869719,73.2367096 364.503374,59.0557581 290.506543,58.0435489 C290.332296,58.033527 290.216131,57.9433301 290.041884,57.9433301 C288.580147,57.9433301 287.186172,57.9834176 285.753476,57.9934395 C284.311099,57.9834176 282.917124,57.9433301 281.455386,57.9433301 C281.28114,57.9433301 281.164975,58.033527 280.990728,58.0435489 C206.993897,59.0557581 137.084731,73.2367096 90.9286751,139.922258 C43.7561792,208.050956 56.0283575,238.479133 56.928633,318.253249 C48.3518155,314.565199 38.3616625,310.165596 29.097538,318.90467 C11.7212544,335.290434 11.3727607,362.429668 15.651489,385.219409 C18.294233,399.300142 23.1053823,412.76954 25.9514142,426.810186 C28.5070348,439.447768 24.7123255,461.826613 31.8951681,473.241527 C39.0780107,484.646419 49.5521828,493.846499 60.7620638,491.661731 C60.7717442,492.764137 60.8201461,493.876565 60.8201461,494.978971 C60.8652272,529.212509 63.2205419,543.775135 70.1641002,576.977349 C72.1665772,586.55265 92.9857565,680.030012 112.465514,699.777141 C133.323134,720.921043 177.827325,784.463547 283.683976,782.891615 C389.540627,781.319682 439.320038,722.95821 461.488448,699.777141 Z M363.828924,565.237513 C341.144506,559.240931 312.994849,550.681 311.009433,550.390051 C302.893437,549.20619 293.925165,557.669076 284.646975,557.98009 C275.368784,557.669076 266.390827,549.20619 258.274832,550.390051 C256.289415,550.681 220.942883,558.879372 206.475052,564.003893 C199.557163,566.454216 186.616073,575.760249 182.679567,587.480469 C178.3834,600.271508 183.136691,615.44831 176.135003,615.44831 C145.375276,615.44831 114.366028,587.510567 99.1509581,564.003893 C83.9165179,540.487187 79.5582864,485.542123 75.878002,458.343407 C75.6165081,456.36696 74.7448618,455.092804 73.6795164,454.149728 C73.4180225,443.324418 73.2146383,432.479043 73.2630631,421.623635 C73.6310916,340.800006 45.9334015,263.477798 80.6636639,187.25919 C96.9925046,151.422298 140.360458,117.461525 171.962479,94.6370766 C203.051197,72.1938719 244.037942,73.6987805 280.443703,74.0599586 C280.569607,74.0599586 280.647087,74.120155 280.772991,74.120155 C282.17731,74.120155 283.649424,74.1000895 285.073113,74.0900568 C286.487117,74.1000895 287.959231,74.120155 289.36355,74.120155 C289.489454,74.120155 289.566934,74.0599586 289.692838,74.0599586 C326.098599,73.6987805 367.085344,72.1938719 398.174062,94.6370766 C429.785768,117.461525 477.601216,151.422298 493.930056,187.25919 C528.660319,263.477798 496.505449,340.800006 496.873478,421.623635 C496.921903,432.208159 496.728203,442.772618 496.476395,453.327044 C494.926801,454.189859 493.745236,455.81516 493.406263,458.343407 C489.725978,485.542123 485.377432,540.487187 470.142991,564.003893 C454.918236,587.510567 433.173906,615.44831 393.556053,615.44831 C388.346931,615.44831 390.973937,600.173884 386.640816,586.362876 C383.601699,576.676263 373.180303,567.709532 363.828924,565.237513 Z M367.791243,607.608479 C352.364992,639.913218 343.220095,674.104618 287.488061,674.104618 C231.756028,674.104618 215.023095,635.327334 208.425099,607.371996 C207.287533,602.551293 247.43871,611.607897 287.488061,611.607897 C327.537412,611.607897 369.983508,603.01857 367.791243,607.608479 Z" fill="#000000" id="Fill-1-Copy"></path><path d="M506.092574,536.010302 C509.135239,536.753391 505.976388,527.566325 506.092574,512.429792 C506.346951,479.289612 506.612218,367.788091 511.270117,330.794916 C514.029372,308.880834 531.276931,314.578044 531.286432,314.328027 C534.663556,225.457211 554.767175,140.697989 492.518306,118.12515 C496.911709,60.628243 397.42895,25.8023442 372.098578,16.8051396 C321.862906,-1.03864676 269.80136,-3.10720049 217.614225,3.33945727 C185.588984,7.30585885 148.028158,26.3044204 126.040391,50.5747814 C110.274118,67.9867823 91.1555807,85.6096552 72.0660252,99.045213 C58.3478224,108.695117 36.2827694,108.755366 27.6944016,123.365782 C26.3902062,125.595 26.1390279,129.209948 27.6944016,131.419083 C32.0707015,137.614703 36.9590188,142.685672 43.1901744,147.204357 C52.1649704,153.711264 12.8652175,159.264226 5.78391988,161.563735 C2.17081576,162.738593 -1.21043142,167.247237 0.422227933,171.384345 C6.03509825,185.573017 27.2282143,195.383585 40.6952388,201.08717 C32.1841566,208.136319 38.7214212,264.279176 38.7117605,284.94463 C38.705089,287.676838 39.5093355,306.369927 40.3536245,315.923795 C40.7319042,320.204359 41.1515254,322.864701 41.5729964,321.839396 C41.1769075,322.803382 57.1910893,320.204359 61.0950136,334.201172 C64.9989378,348.197986 61.3655684,541.835813 74.5814146,539.214976 C78.5663316,605.172448 87.9916799,646.354656 102.857459,662.761601 C153.006816,718.110039 226.495301,703.80618 278.573703,704.458951 C353.808514,705.401972 413.27318,697.066544 456.967701,679.452667 M79.5511083,489.482065 C78.5570827,481.04745 77.9730753,470.547356 75.878002,458.343407 C74.4422305,449.979936 72.7582712,439.969544 72.2794156,429.835814 C71.4118612,411.476291 71.4118612,377.71428 72.2794156,328.549783 C73.1621215,291.773303 74.8080904,266.568416 77.2173225,252.935122 C83.8365483,215.478435 96.530509,173.916625 106.384846,168.364308 C147.931852,144.955104 241.85212,213.799185 289.365525,208.929705 C322.290551,205.55621 414.268001,143.545428 468.839381,168.364308 C479.296193,173.12003 491.523451,215.849835 496.606798,256.439108 C498.256275,269.609774 498.608261,293.61036 497.662758,328.440864 C497.991491,373.273543 497.664908,405.104609 496.683008,423.934064 C495.63932,443.94837 492.273894,462.161566 491.172119,478.57365 C487.743398,529.648039 486.882832,563.279504 487.99735,579.468044 C489.595905,602.692953 469.52911,656.841569 469.365304,657.433938 C406.383204,688.585727 332.425543,704.161621 247.492321,704.161621 C120.092488,704.161621 113.859225,683.912787 91.6309501,634.884552" fill="#000000" id="Fill-2"></path><path d="M219.935464,376.715435 C232.815697,376.877453 241.322324,400.3088 238.617429,403.001339 C235.912534,405.693878 208.838497,416.327857 182.386682,413.216474 C167.375316,411.450769 154.350186,405.404701 144.11066,400.3088 C136.306921,396.425116 129.258198,393.291985 129.258198,391.857222 C129.258198,388.539864 146.211857,380.391649 153.648439,378.342368 C154.777104,378.031344 173.09122,377.076645 190.254216,376.715435 C204.115385,376.423714 217.224122,376.681329 219.935464,376.715435 Z M169.25486,383.002958 C161.037849,383.403299 155.777973,383.952461 153.47523,384.650443 C151.172488,385.348424 149.448582,386.960288 148.303513,389.486032 C149.830069,394.585157 152.348519,398.355568 155.858863,400.797267 C159.369207,403.238966 165.787164,405.684474 175.112734,408.133791 C171.174509,404.712156 168.699456,400.698137 167.687574,396.091732 C166.675692,391.485327 167.198121,387.122402 169.25486,383.002958 Z M209.92152,383.002958 C210.938363,388.297463 211.160385,392.638164 210.587586,396.025063 C209.868531,400.276761 207.755799,404.060411 204.24939,407.376014 C221.563168,404.453539 230.97887,401.422725 232.496498,398.283573 C234.772939,393.574845 222.537562,383.23087 216.158778,383.23087 C215.226397,383.23087 213.147311,383.154899 209.92152,383.002958 Z M175.667658,388.248065 C173.127955,388.248065 171.069119,390.306901 171.069119,392.846604 C171.069119,395.386307 173.127955,397.445142 175.667658,397.445142 C178.207361,397.445142 180.266197,395.386307 180.266197,392.846604 C180.266197,390.306901 178.207361,388.248065 175.667658,388.248065 Z" fill="#000000"></path><path d="M351.243975,376.715435 C353.955317,376.681329 367.064054,376.423714 380.925223,376.715435 C398.088219,377.076645 416.402335,378.031344 417.531,378.342368 C424.967582,380.391649 441.921241,388.539864 441.921241,391.857222 C441.921241,393.291985 434.872518,396.425116 427.068779,400.3088 C416.829253,405.404701 403.804123,411.450769 388.792758,413.216474 C362.340942,416.327857 335.266905,405.693878 332.56201,403.001339 C329.857115,400.3088 338.363742,376.877453 351.243975,376.715435 Z M401.924579,383.002958 C403.981318,387.122402 404.503747,391.485327 403.491865,396.091732 C402.479983,400.698137 400.00493,404.712156 396.066705,408.133791 C405.392275,405.684474 411.810232,403.238966 415.320576,400.797267 C418.83092,398.355568 421.34937,394.585157 422.875926,389.486032 C421.730857,386.960288 420.006951,385.348424 417.704209,384.650443 C415.401466,383.952461 410.14159,383.403299 401.924579,383.002958 Z M361.257919,383.002958 C358.032128,383.154899 355.953042,383.23087 355.020661,383.23087 C348.641877,383.23087 336.4065,393.574845 338.682941,398.283573 C340.200569,401.422725 349.616271,404.453539 366.930049,407.376014 C363.42364,404.060411 361.310908,400.276761 360.591853,396.025063 C360.019054,392.638164 360.241076,388.297463 361.257919,383.002958 Z M369.515785,388.248065 C366.789527,388.248065 364.579459,390.458134 364.579459,393.184391 C364.579459,395.910649 366.789527,398.120717 369.515785,398.120717 C372.242043,398.120717 374.452111,395.910649 374.452111,393.184391 C374.452111,390.458134 372.242043,388.248065 369.515785,388.248065 Z" fill="#000000"></path><path d="M245.837272,531.964264 C245.837272,531.964264 254.21696,532.878253 262.563028,542.082328 L266.193623,545.759501 C266.193623,545.759501 259.168229,544.042087 255.103504,542.905507 C251.036105,541.74664 246.269226,536.030872 245.837272,531.964264 Z" fill="#171518" id="Fill-1"></path><path d="M299.323423,531.964264 C299.323423,531.964264 307.703111,532.878253 316.049179,542.082328 L319.679774,545.759501 C319.679774,545.759501 312.65438,544.042087 308.589655,542.905507 C304.522256,541.74664 299.755377,536.030872 299.323423,531.964264 Z" fill="#171518" id="Fill-1-Copy-2" transform="translate(309.501599, 538.861882) scale(-1, 1) translate(-309.501599, -538.861882) "></path><path d="M278.887447,552.088696 C269.808396,550.640113 262.583308,540.143455 256.282863,533.725117 C253.463697,530.872523 253.984995,531.139764 249.610497,531.072907 C244.988179,531.006049 241.235457,531.496339 236.829313,532.989494 L236.889484,533.234639 C248.509351,530.315186 254.905594,535.552561 263.305148,543.664627 C267.929472,548.144092 272.371051,552.021838 278.59773,553.202991 C279.281907,553.336706 279.569395,552.200125 278.887447,552.088696 Z M286.247953,552.088696 C295.327004,550.640113 302.552091,540.143455 308.852537,533.725117 C311.671703,530.872523 311.150404,531.139764 315.524903,531.072907 C320.14722,531.006049 323.899943,531.496339 328.306087,532.989494 L328.245915,533.234639 C316.626049,530.315186 310.229805,535.552561 301.830251,543.664627 C297.205928,548.144092 292.764349,552.021838 286.537669,553.202991 C285.853492,553.336706 285.566004,552.200125 286.247953,552.088696 Z M244.419889,542.238141 C239.952755,542.07993 228.822259,542.324851 224.743364,534.549507 C219.054725,523.705608 225.667719,503.545096 226.741113,500.585801 C226.837165,500.296084 226.400139,500.162369 226.295395,500.452085 C223.843946,506.848138 219.656426,528.978032 222.012046,534.549507 C226.181737,544.422159 235.456501,543.419293 244.419889,543.575294 C245.206581,543.59758 245.206581,542.282713 244.419889,542.238141 Z M318.766614,542.238141 C323.233748,542.07993 334.364244,542.324851 338.44314,534.549507 C344.131778,523.705608 337.518784,503.545096 336.445391,500.585801 C336.349338,500.296084 336.786365,500.162369 336.891108,500.452085 C339.342557,506.848138 343.530077,528.978032 341.174458,534.549507 C337.004767,544.422159 327.730002,543.419293 318.766614,543.575294 C317.979922,543.59758 317.979922,542.282713 318.766614,542.238141 Z M308.619454,452.219811 C310.832221,468.46623 319.944785,482.534225 322.509892,498.825215 L322.647842,498.780643 C321.154687,483.64852 314.631605,470.767272 311.355578,456.147724 C309.254241,446.787647 307.201487,436.848138 307.807663,427.443489 C308.404925,417.860554 305.810847,408.455906 305.697189,398.917542 L305.434215,398.917542 C304.754496,408.522763 305.989718,418.278392 305.773322,427.861327 C305.592807,435.861964 307.524994,444.196889 308.619454,452.219811 Z" fill="#171518" id="Fill-3"></path><path d="M227.720277,365.760539 C247.597562,363.170967 248.650076,336.151072 241.993271,327.474507 C241.215384,326.460599 237.645771,324.44166 235.106766,324.037955 C233.840199,323.83657 241.294828,329.072642 241.402082,338.902306 C241.436215,342.030626 240.75464,345.271145 239.357355,348.623864 C240.119836,345.543858 240.310499,342.31129 239.929344,338.92616 C238.896862,329.756443 233.867805,323.946916 232.289493,323.765422 C231.889758,323.719456 229.231422,323.444127 228.818703,323.399102 C228.745189,323.391082 234.099974,329.556945 234.986149,333.9824 C235.958624,338.838832 234.717225,341.958663 234.635625,341.949929 C234.552048,341.940985 234.944578,338.692808 233.77222,333.658536 C232.786978,329.427764 227.743835,323.33699 227.672819,323.32953 C219.28919,322.448806 209.783082,321.699683 198.059103,321.082138 C180.419627,320.153004 161.338326,316.310488 148.65654,315.59058 C120.758698,314.006901 103.951445,319.839534 95.07066,336.248547 C86.1898746,352.65756 102.747755,369.192788 107.543497,372.541985 C112.339239,375.891183 110.284342,364.769992 125.751205,360.270204 C141.218069,355.770417 207.842993,368.35011 227.720277,365.760539 Z" fill="#000000" transform="translate(169.084745, 344.250867) rotate(1.000000) translate(-169.084745, -344.250867) "></path><path d="M233.435835,366.356254 C236.885194,365.138788 242.519559,360.454867 245.629057,354.469258 C248.687889,348.581177 249.39191,337.349187 248.865854,333.316096 C248.662956,331.760553 246.969124,331.666976 246.820329,332.703082 C246.747543,333.209912 246.912999,336.130105 246.902311,337.399793 C246.863331,342.030078 246.171492,346.982218 245.10572,350.502802 C243.226383,356.710851 240.302997,360.187419 238.59434,361.889867 C236.913618,363.564482 235.274783,364.898499 233.430844,366.070324 C233.397143,366.091741 232.761177,366.594377 233.435835,366.356254 Z" fill="#000000" transform="translate(241.075971, 349.219848) rotate(4.000000) translate(-241.075971, -349.219848) "></path><path d="M460.926059,365.760539 C480.803343,363.170967 481.855857,336.151072 475.199052,327.474507 C474.421165,326.460599 470.851552,324.44166 468.312547,324.037955 C467.045981,323.83657 474.500609,329.072642 474.607863,338.902306 C474.641996,342.030626 473.960421,345.271145 472.563136,348.623864 C473.325617,345.543858 473.51628,342.31129 473.135125,338.92616 C472.102643,329.756443 467.073586,323.946916 465.495274,323.765422 C465.095539,323.719456 462.437203,323.444127 462.024484,323.399102 C461.95097,323.391082 467.305755,329.556945 468.19193,333.9824 C469.164405,338.838832 467.923006,341.958663 467.841406,341.949929 C467.757829,341.940985 468.150359,338.692808 466.978001,333.658536 C465.992759,329.427764 460.949616,323.33699 460.8786,323.32953 C452.494971,322.448806 442.988863,321.699683 431.264884,321.082138 C413.625408,320.153004 394.544107,316.310488 381.862321,315.59058 C353.964479,314.006901 337.157226,319.839534 328.276441,336.248547 C319.395656,352.65756 335.953536,369.192788 340.749278,372.541985 C345.54502,375.891183 343.490123,364.769992 358.956987,360.270204 C374.42385,355.770417 441.048774,368.35011 460.926059,365.760539 Z" fill="#000000" transform="translate(402.290526, 344.250867) scale(-1, 1) rotate(1.000000) translate(-402.290526, -344.250867) "></path><path d="M322.659164,366.356254 C326.108523,365.138788 331.742888,360.454867 334.852385,354.469258 C337.911218,348.581177 338.615239,337.349187 338.089182,333.316096 C337.886285,331.760553 336.192453,331.666976 336.043658,332.703082 C335.970872,333.209912 336.136328,336.130105 336.125639,337.399793 C336.08666,342.030078 335.39482,346.982218 334.329049,350.502802 C332.449712,356.710851 329.526326,360.187419 327.817669,361.889867 C326.136947,363.564482 324.498112,364.898499 322.654173,366.070324 C322.620472,366.091741 321.984505,366.594377 322.659164,366.356254 Z" fill="#000000" transform="translate(330.299300, 349.219848) scale(-1, 1) rotate(4.000000) translate(-330.299300, -349.219848) "></path></g></g></g></svg>
